<svg width="510" height="168" viewBox="0 0 510 168" fill="none" xmlns="http://www.w3.org/2000/svg">
<path d="M212.7 111.764L212.7 111.764C211.51 110.744 210.827 109.674 210.764 108.552L212.7 111.764ZM212.7 111.764L212.706 111.769C214 112.828 215.823 113.333 218.127 113.333H223.169H223.506V112.996V112.335V111.998H223.169H220.637L219.758 111.838L219.742 111.835L219.725 111.833C219.201 111.79 218.618 111.435 217.984 110.646C217.436 109.842 217.141 108.682 217.141 107.127V81.2538C217.141 78.4948 216.436 76.2103 215 74.4292L215 74.4291L214.996 74.4237C214.056 73.3076 212.582 72.4824 210.62 71.9211C208.701 71.301 206.211 70.9972 203.165 70.9972C200.049 70.9972 197.192 72.0757 194.603 74.2143C192.533 75.8798 190.976 77.6645 189.946 79.5708V71.665V71.3279H189.608H183.822H183.485V71.665V112.996V113.333H183.822H189.608H189.946V112.996V83.651C189.946 81.5865 191.268 79.1899 194.06 76.4522L194.063 76.4498C196.819 73.6938 199.904 72.3328 203.33 72.3328C205.001 72.3328 206.378 72.6019 207.476 73.1232C209.56 74.2459 210.681 76.8563 210.681 81.1711V107.127V107.137L210.681 107.147L210.764 108.551L212.7 111.764ZM178.274 58.9191L178.585 59.0385L178.708 58.7296L179.039 57.903L179.172 57.571L178.833 57.4579C173.18 55.5738 167.606 54.6301 162.111 54.6301C156.664 54.6301 152.517 55.9078 149.73 58.5227C146.954 61.0728 145.572 64.4175 145.572 68.5238C145.572 73.705 147.721 77.7238 152.004 80.5423C153.894 81.8204 155.976 82.986 158.249 84.0395L158.249 84.0396L158.256 84.0424C160.516 85.0348 162.749 85.9997 164.955 86.9371L164.958 86.9383C167.204 87.8698 169.257 88.8825 171.115 89.9759C175.214 92.4026 177.232 95.743 177.232 100.018C177.232 103.934 175.685 106.883 172.59 108.911C169.514 110.908 165.778 111.915 161.367 111.915C158.371 111.915 155.429 111.479 152.541 110.608C149.704 109.68 147.401 108.512 145.622 107.11L145.327 106.877L145.127 107.196L144.714 107.858L144.545 108.129L144.806 108.312C149.666 111.72 155.523 113.416 162.359 113.416C166.02 113.416 169.224 113 171.964 112.161L171.968 112.16C174.791 111.256 177.188 109.562 179.155 107.089C181.136 104.598 182.122 101.601 182.122 98.1168C182.122 94.6114 181.538 91.715 180.348 89.4472C179.168 87.1444 177.617 85.3357 175.691 84.033C173.799 82.7532 171.715 81.6138 169.438 80.6144C167.172 79.6195 164.905 78.7348 162.638 77.9605C160.446 77.1385 158.421 76.2625 156.561 75.3328C152.462 73.1744 150.462 70.1641 150.462 66.292C150.462 63.0833 151.659 60.5961 154.048 58.7907C156.449 56.9764 159.812 56.0484 164.178 56.0484C168.592 56.0484 173.291 57.0022 178.274 58.9191ZM225.272 76.7996L225.271 76.8014C221.445 80.6837 219.553 86.1242 219.553 93.0744C219.553 100.019 221.387 105.224 225.119 108.616C228.829 111.989 233.626 113.664 239.481 113.664C245.402 113.664 250.286 111.733 254.103 107.861C257.985 103.979 259.905 98.5377 259.905 91.5865C259.905 84.6423 258.071 79.4373 254.339 76.0446C250.628 72.6714 245.803 70.9972 239.894 70.9972C234.026 70.9972 229.143 72.9288 225.272 76.7996ZM229.914 77.8183L229.916 77.8164C232.616 74.1444 235.991 72.3328 240.059 72.3328C244.148 72.3328 247.411 73.8864 249.88 76.9995C252.346 80.1088 253.609 84.9499 253.609 91.5865C253.609 98.1561 252.24 103.256 249.543 106.926C246.844 110.542 243.468 112.328 239.398 112.328C235.31 112.328 232.046 110.775 229.577 107.661C227.111 104.552 225.848 99.7378 225.848 93.1571C225.848 86.5304 227.218 81.4314 229.914 77.8183ZM316.225 71.9226L315.979 72.1688L316.233 72.4069C317.027 73.1511 317.449 74.2617 317.449 75.7981C317.449 77.3492 317.128 78.6669 316.501 79.7639L316.494 79.7766L316.488 79.7899L304.843 105.008L292.477 71.5481L292.396 71.3279H292.161H286.375H285.892L286.058 71.781L289.069 79.9993L277.564 105.006L265.199 71.5481L265.117 71.3279H264.882H259.096H258.611L258.78 71.7826L274.155 113.114L274.237 113.333H274.471H275.298H275.515L275.605 113.136L289.815 81.8888L301.434 113.114L301.515 113.333H301.75H302.576H302.793L302.883 113.136L317.928 80.0709L317.931 80.064C318.608 78.4844 318.95 76.9239 318.95 75.3848C318.95 74.9729 318.892 74.5383 318.779 74.0823C318.711 73.575 318.462 73.0371 318.069 72.4734C317.901 72.194 317.741 71.9611 317.59 71.7798C317.442 71.6015 317.282 71.4494 317.11 71.3634L316.893 71.2548L316.721 71.4266L316.225 71.9226Z" fill="black" stroke="black" stroke-width="0.674298"/>
<path d="M331.754 55.7301C333.305 53.3522 335.821 51.51 339.314 51.3472L338.584 107.701V107.706C338.584 108.215 338.743 108.764 339.033 109.344C340.39 112.059 343.628 113.333 348.51 113.333H351.072H351.41V112.996V112.335V111.998H351.072H348.54L347.661 111.838L347.645 111.835L347.629 111.833C347.104 111.79 346.522 111.435 345.888 110.646C345.339 109.842 345.045 108.682 345.045 107.127V51.0822V50.7505L344.713 50.7451L339.661 50.6624L339.323 50.6569L339.322 50.6669C333.666 50.7688 329.483 52.0989 326.854 54.7276C324.168 57.3571 322.868 61.7401 322.868 67.7799V71.3279H321.47H321.133V71.665V73.0006V73.3377H321.47H322.868V112.996V113.333H323.206H328.992H329.329V112.996V73.3377H335.522H335.859V73.0006V71.665V71.3279H335.522H329.329V67.7799C329.329 62.1194 330.157 58.1264 331.752 55.7329L331.754 55.7301ZM375.771 92.7899C374.643 92.6996 373.405 92.6546 372.058 92.6546C370.559 92.6546 368.924 92.7378 367.154 92.9036C363.59 93.1249 360.64 93.5402 358.312 94.1537C355.988 94.766 354.251 95.5838 353.144 96.6321C352.079 97.6409 351.393 98.6026 351.149 99.5179C350.922 100.368 350.807 101.169 350.807 101.919C350.807 102.598 350.863 103.277 350.976 103.956C351.454 107.157 352.705 109.598 354.757 111.234C356.806 112.868 359.61 113.664 363.13 113.664C366.153 113.664 368.782 113.041 371.005 111.781C372.902 110.705 374.491 109.172 375.771 107.192V107.706C375.771 108.735 376.498 109.867 377.771 111.086C379.251 112.62 381.935 113.333 385.697 113.333H388.259H388.596V112.996V112.335V111.998H388.259H385.727L384.848 111.838L384.832 111.835L384.815 111.833C384.291 111.79 383.709 111.435 383.075 110.646C382.526 109.842 382.231 108.682 382.231 107.127V79.4352C382.231 77.5718 381.472 75.8142 379.997 74.1684C379.029 73.0837 377.57 72.2936 375.659 71.7737C373.747 71.2534 371.359 70.9972 368.503 70.9972C363.381 70.9972 358.346 72.1388 353.4 74.4173L353.066 74.5713L353.249 74.8908L353.579 75.4694L353.746 75.7608L354.038 75.5956C355.267 74.9009 357.217 74.1933 359.91 73.4788L359.91 73.4788L359.914 73.4776C362.651 72.7113 365.016 72.3328 367.015 72.3328C369.028 72.3328 370.631 72.6054 371.84 73.1315L371.84 73.1317L371.852 73.1362C373.089 73.6205 373.901 74.1944 374.343 74.8327C374.823 75.5264 375.195 76.2441 375.46 76.9861L375.465 77.0003L375.471 77.014C375.786 77.6958 375.866 78.2207 375.78 78.6141C375.723 78.8412 375.688 79.0435 375.688 79.2079C375.688 79.2904 375.697 79.3838 375.729 79.473C375.74 79.5016 375.753 79.5317 375.771 79.5614V92.7899ZM357.432 103.875L357.431 103.87C357.377 103.327 357.35 102.843 357.35 102.415C357.35 100.049 357.968 98.2387 359.162 96.9398C359.743 96.3087 360.683 95.7537 362.02 95.2945C363.354 94.8367 365.057 94.4824 367.136 94.236C368.611 94.0722 370.087 93.9902 371.562 93.9902C372.989 93.9902 374.392 94.0376 375.771 94.1323V103.805C375.612 105.545 374.424 107.422 372.086 109.434C369.83 111.368 367.289 112.328 364.453 112.328C362.331 112.328 360.717 111.63 359.565 110.258C358.402 108.872 357.677 106.761 357.432 103.875ZM395.625 50.9995V50.6624H395.287H389.501H389.164V50.9995V112.996V113.333H389.501H395.287H395.625V112.996V93.2007L397.486 91.063L412.533 113.186L412.633 113.333H412.812H418.598H419.235L418.877 112.806L401.252 86.902L414.552 71.8886L415.049 71.3279H414.3H413.473H413.322L413.221 71.4413L395.625 91.2771V50.9995ZM451.021 110.053L450.893 109.754L450.59 109.871C446.337 111.507 441.475 112.328 435.997 112.328C432.194 112.328 429.124 110.782 426.761 107.669C424.456 104.559 423.274 99.633 423.274 92.8265C423.274 91.3472 423.345 89.9166 423.488 88.5345H452.695H453.032V88.1974V88.1958V88.1942V88.1926V88.1909V88.1893V88.1877V88.1861V88.1845V88.1829V88.1813V88.1796V88.178V88.1764V88.1748V88.1732V88.1716V88.1699V88.1683V88.1667V88.1651V88.1635V88.1619V88.1603V88.1586V88.157V88.1554V88.1538V88.1522V88.1506V88.149V88.1473V88.1457V88.1441V88.1425V88.1409V88.1393V88.1377V88.136V88.1344V88.1328V88.1312V88.1296V88.128V88.1264V88.1247V88.1231V88.1215V88.1199V88.1183V88.1167V88.1151V88.1134V88.1118V88.1102V88.1086V88.107V88.1054V88.1038V88.1021V88.1005V88.0989V88.0973V88.0957V88.0941V88.0925V88.0908V88.0892V88.0876V88.086V88.0844V88.0828V88.0812V88.0795V88.0779V88.0763V88.0747V88.0731V88.0715V88.0699V88.0682V88.0666V88.065V88.0634V88.0618V88.0602V88.0585V88.0569V88.0553V88.0537V88.0521V88.0505V88.0489V88.0472V88.0456V88.044V88.0424V88.0408V88.0392V88.0376V88.0359V88.0343V88.0327V88.0311V88.0295V88.0279V88.0263V88.0246V88.023V88.0214V88.0198V88.0182V88.0166V88.015V88.0133V88.0117V88.0101V88.0085V88.0069V88.0053V88.0037V88.002V88.0004V87.9988V87.9972V87.9956V87.994V87.9924V87.9907V87.9891V87.9875V87.9859V87.9843V87.9827V87.9811V87.9794V87.9778V87.9762V87.9746V87.973V87.9714V87.9698V87.9681V87.9665V87.9649V87.9633V87.9617V87.9601V87.9585V87.9568V87.9552V87.9536V87.952V87.9504V87.9488V87.9472V87.9455V87.9439V87.9423V87.9407V87.9391V87.9375V87.9358V87.9342V87.9326V87.931V87.9294V87.9278V87.9262V87.9245V87.9229V87.9213V87.9197V87.9181V87.9165V87.9149V87.9132V87.9116V87.91V87.9084V87.9068V87.9052V87.9036V87.9019V87.9003V87.8987V87.8971V87.8955V87.8939V87.8923V87.8906V87.889V87.8874V87.8858V87.8842V87.8826V87.881V87.8793V87.8777V87.8761V87.8745V87.8729V87.8713V87.8697V87.868V87.8664V87.8648V87.8632V87.8616V87.86V87.8584V87.8567V87.8551V87.8535V87.8519V87.8503V87.8487V87.847V87.8454V87.8438V87.8422V87.8406V87.839V87.8374V87.8358V87.8341V87.8325V87.8309V87.8293V87.8277V87.8261V87.8244V87.8228V87.8212V87.8196V87.818V87.8164V87.8148V87.8131V87.8115V87.8099V87.8083V87.8067V87.8051V87.8035V87.8018V87.8002V87.7986V87.797V87.7954V87.7938V87.7922V87.7905V87.7889V87.7873V87.7857V87.7841V87.7825V87.7809V87.7792V87.7776V87.776V87.7744V87.7728V87.7712V87.7696V87.7679V87.7663V87.7647V87.7631V87.7615V87.7599V87.7583V87.7566V87.755V87.7534V87.7518V87.7502V87.7486V87.747V87.7453V87.7437V87.7421V87.7405V87.7389V87.7373V87.7357V87.734V87.7324V87.7308V87.7292V87.7276V87.726V87.7243V87.7227V87.7211V87.7195V87.7179V87.7163V87.7147V87.713V87.7114V87.7098V87.7082V87.7066V87.705V87.7034V87.7017V87.7001V87.6985V87.6969V87.6953V87.6937V87.6921V87.6904V87.6888V87.6872V87.6856V87.684V87.6824V87.6808V87.6791V87.6775V87.6759V87.6743V87.6727V87.6711V87.6695V87.6678V87.6662V87.6646V87.663V87.6614V87.6598V87.6582V87.6565V87.6549V87.6533V87.6517V87.6501V87.6485V87.6469V87.6452V87.6436V87.642V87.6404V87.6388V87.6372V87.6356V87.6339V87.6323V87.6307V87.6291V87.6275V87.6259V87.6243V87.6226V87.621V87.6194V87.6178V87.6162V87.6146V87.6129V87.6113V87.6097V87.6081V87.6065V87.6049V87.6033V87.6017V87.6V87.5984V87.5968V87.5952V87.5936V87.592V87.5903V87.5887V87.5871V87.5855V87.5839V87.5823V87.5807V87.579V87.5774V87.5758V87.5742V87.5726V87.571V87.5694V87.5677V87.5661V87.5645V87.5629V87.5613V87.5597V87.5581V87.5564V87.5548V87.5532V87.5516V87.55V87.5484V87.5468V87.5451V87.5435V87.5419V87.5403V87.5387V87.5371V87.5355V87.5338V87.5322V87.5306V87.529V87.5274V87.5258V87.5242V87.5225V87.5209V87.5193V87.5177V87.5161V87.5145V87.5129V87.5112V87.5096V87.508V87.5064V87.5048V87.5032V87.5016V87.4999V87.4983V87.4967V87.4951V87.4935V87.4919V87.4902V87.4886V87.487V87.4854V87.4838V87.4822V87.4806V87.4789V87.4773V87.4757V87.4741V87.4725V87.4709V87.4693V87.4676V87.466V87.4644V87.4628V87.4612V87.4596V87.458V87.4563V87.4547V87.4531V87.4515V87.4499V87.4483V87.4467V87.445V87.4434V87.4418V87.4402V87.4386V87.437V87.4354V87.4337V87.4321V87.4305V87.4289V87.4273V87.4257V87.4241V87.4224V87.4208V87.4192V87.4176V87.416V87.4144V87.4128V87.4111V87.4095V87.4079V87.4063V87.4047V87.4031V87.4015V87.3998V87.3982V87.3966V87.395V87.3934V87.3918V87.3902V87.3885V87.3869V87.3853V87.3837V87.3821V87.3805V87.3788V87.3772V87.3756V87.374V87.3724V87.3708C453.032 82.0133 451.467 77.9128 448.288 75.1311C445.134 72.3714 441.25 70.9972 436.659 70.9972C430.952 70.9972 426.233 72.9311 422.528 76.805C418.814 80.6877 416.978 86.1269 416.978 93.0745C416.978 100.014 418.727 105.217 422.291 108.611C425.835 111.986 430.414 113.664 435.997 113.664C441.598 113.664 446.627 112.804 451.081 111.078L451.406 110.952L451.269 110.631L451.021 110.053ZM443.75 76.0059C445.625 78.4023 446.637 82.1141 446.732 87.1989H423.656C424.338 82.5785 425.844 78.9723 428.148 76.3528C430.576 73.6554 433.3 72.3328 436.328 72.3328C439.362 72.3328 441.828 73.5502 443.75 76.0059Z" fill="black" stroke="black" stroke-width="0.674298"/>
<path d="M460.323 50.1319V52.3157H457.84V58.9598H455.483V52.3157H453V50.1319H460.323Z" fill="black"/>
<path d="M470 49.9995V58.9995H467.643V54.6319L465.916 56.6833H465.211L463.484 54.6319V58.9995H461.127V49.9995H461.959L465.563 53.8377L469.168 49.9995H470Z" fill="black"/>
<path fill-rule="evenodd" clip-rule="evenodd" d="M80.4814 98.6169L80.4454 127L86.4454 127.008L86.4815 98.4923L97.4268 124.823L102.967 122.52L92.0971 96.3701L112.096 116.42L116.344 112.183L96.2593 92.0468L122.528 102.948L124.827 97.4068L98.5558 86.5037H127V80.5037H98.624L124.852 69.6717L122.561 64.126L96.4456 74.9118L116.527 55.0354L112.307 50.771L91.9757 70.894L102.932 44.4695L97.3891 42.1715L86.5197 68.3874L86.5557 40.0076L80.5557 40L80.5195 68.5179L69.5732 42.1844L64.0328 44.4874L74.9019 70.6351L54.9043 50.5867L50.6563 54.824L70.7417 74.9604L44.4727 64.0584L42.1728 69.6001L68.4456 80.5037H40V86.5037H68.3781L42.1493 97.3362L44.4396 102.882L70.554 92.0966L50.4729 111.972L54.6937 116.237L75.0236 96.1148L64.0683 122.538L69.6107 124.836L80.4814 98.6169Z" fill="#8FD5F5"/>
</svg>
